<svg id="Ebene_1" data-name="Ebene 1" xmlns="http://www.w3.org/2000/svg" xmlns:xlink="http://www.w3.org/1999/xlink" viewBox="0 0 475.61 475.61"><defs><style>.cls-1{fill:#5c81c1;}.cls-2{fill:#4270b3;}.cls-3{fill:url(#Unbenannter_Verlauf_22);}.cls-4{fill:#221f20;}.cls-5{fill:#161616;}</style><linearGradient id="Unbenannter_Verlauf_22" x1="298.29" y1="421.86" x2="536.09" y2="421.86" gradientUnits="userSpaceOnUse"><stop offset="0" stop-color="#204f97"/><stop offset="0.09" stop-color="#214680" stop-opacity="0.81"/><stop offset="0.21" stop-color="#213a63" stop-opacity="0.56"/><stop offset="0.35" stop-color="#22304a" stop-opacity="0.36"/><stop offset="0.49" stop-color="#222938" stop-opacity="0.2"/><stop offset="0.64" stop-color="#23232a" stop-opacity="0.09"/><stop offset="0.8" stop-color="#232023" stop-opacity="0.02"/><stop offset="1" stop-color="#231f20" stop-opacity="0"/></linearGradient></defs><title>SchwarzherzLogoFlatSlim</title><path class="cls-1" d="M199.82,460c-1.16,33.69,5.16,62.46,38.86,62.65a59.26,59.26,0,0,0,54.65-35.53c-5.76,26.84-17.19,41.66-30.14,49.38h-63.5s35.35,16.79,63.5,0h35.1V659C166.95,659,60.48,552.55,60.48,421.22S166.95,183.41,298.29,183.41V254S202.79,373.88,199.82,460Z" transform="translate(-60.48 -183.41)"/><path class="cls-2" d="M536.09,421.22A237.82,237.82,0,0,1,298.29,659V183.41a237.71,237.71,0,0,1,237.8,237.81Z" transform="translate(-60.48 -183.41)"/><path class="cls-3" d="M536.09,421.22a237.05,237.05,0,0,1-70,168.53L298.29,536.48V254l205.4,47.33A236.76,236.76,0,0,1,536.09,421.22Z" transform="translate(-60.48 -183.41)"/><path class="cls-4" d="M263.19,536.48c-28.15,16.79-63.5,0-63.5,0Z" transform="translate(-60.48 -183.41)"/><path class="cls-4" d="M298.29,254v282.5h-35.1c12.95-7.72,24.38-22.54,30.14-49.38a59.26,59.26,0,0,1-54.65,35.53c-33.7-.19-40-29-38.86-62.65C202.79,373.88,298.29,254,298.29,254Z" transform="translate(-60.48 -183.41)"/><path class="cls-5" d="M356,522.61a59.29,59.29,0,0,1-52.75-35.51c5.76,26.84,17.19,41.66,30.14,49.38H298.29V254c.54.31,95.47,119.9,98.47,206C398,494.37,390.44,523.5,356,522.61Z" transform="translate(-60.48 -183.41)"/><path class="cls-5" d="M396.88,536.48s-35.35,16.79-63.5,0Z" transform="translate(-60.48 -183.41)"/></svg>